<svg xmlns="http://www.w3.org/2000/svg" xmlns:xlink="http://www.w3.org/1999/xlink" version="1.1" enable-background="new 0 0 100 100" xml:space="preserve" width="49" height="77.6808511018753" style=""><rect id="backgroundrect" width="100%" height="100%" x="0" y="0" fill="none" stroke="#c45525" style="" class="selected" opacity="1" stroke-opacity="0"/><g class="currentLayer" style=""><title>Layer 1</title><path d="M86.49103164672852,11.272215843200684 c-0.10932433605194092,-0.802568793296814 -0.9827560782432556,-1.4368433952331543 -2.085303544998169,-1.5163391828536987 c-3.391380548477173,-0.2460985630750656 -6.747870445251465,0.36449646949768066 -9.551923751831055,1.6846333742141724 c0.002326049841940403,-0.1006382405757904 0.019771425053477287,-0.20043078064918518 0.019771425053477287,-0.3019147217273712 c0,-4.439922332763672 -2.7121741771698,-8.602455139160156 -7.4398698806762695,-11.42032527923584 c-0.8559863567352295,-0.5108024477958679 -2.0922818183898926,-0.5108024477958679 -2.948268175125122,0 c-4.7288594245910645,2.818716287612915 -7.441032886505127,6.9812493324279785 -7.441032886505127,11.42032527923584 c0,0.19704797863960266 0.027912598103284836,0.39155885577201843 0.03837982192635536,0.5877611637115479 c-2.909888505935669,-1.5112649202346802 -6.481537818908691,-2.2326467037200928 -10.103198051452637,-1.9696340560913086 c-1.1025476455688477,0.07949575036764145 -1.9759793281555176,0.7146161198616028 -2.085303544998169,1.5163391828536987 c-0.4419494569301605,3.243257522583008 1.119992971420288,6.4230875968933105 4.284583568572998,8.723389625549316 c1.5398449897766113,1.119706153869629 3.364630937576294,1.9527201652526855 5.348751544952393,2.486356496810913 c-3.275078058242798,2.1954357624053955 -5.341773509979248,5.329598426818848 -5.341773509979248,8.815570831298828 c0,3.542635202407837 2.631925344467163,14.966343879699707 5.518553256988525,26.604015350341797 c-0.0011630249209702015,0.021142488345503807 -0.008141174912452698,0.040593575686216354 -0.008141174912452698,0.06173606216907501 c0,0.23679585754871368 0.06861846894025803,0.4625976085662842 0.18957306444644928,0.6672568917274475 c0.6617611646652222,2.6597249507904053 1.3328266143798828,5.321987152099609 1.9876095056533813,7.89629602432251 c0.35937467217445374,1.415700912475586 0.6268703937530518,2.466905355453491 0.7594552636146545,3.014072895050049 c1.139764428138733,4.6775641441345215 3.819373607635498,5.592610836029053 8.062088966369629,5.592610836029053 c4.345061302185059,0 7.0583977699279785,-0.9209667444229126 8.069067001342773,-5.626438617706299 c0.19306212663650513,-0.898132860660553 0.7908569574356079,-3.2762398719787598 1.544497013092041,-6.286930084228516 c3.3367183208465576,-13.297779083251953 6.895574569702148,-27.827739715576172 6.895574569702148,-31.923465728759766 c0,-3.485973596572876 -2.066695213317871,-6.62013578414917 -5.341773509979248,-8.815570831298828 c1.984120488166809,-0.5344821214675903 3.807743549346924,-1.3666504621505737 5.348751544952393,-2.486356496810913 C85.37102890014648,17.69614887237549 86.93297958374023,14.516318321228027 86.49103164672852,11.272215843200684 zM65.95782089233398,3.332789421081543 c2.729619264602661,2.1015632152557373 4.262486457824707,4.875457286834717 4.262486457824707,7.80496072769165 c0,2.9058234691619873 -1.5084433555603027,5.672952175140381 -4.2450408935546875,7.789738178253174 c-0.0058151246048510075,0.004228497389703989 -0.011630249209702015,0.009302694350481033 -0.01744537241756916,0.01353119220584631 c-2.7493910789489746,-2.1193230152130127 -4.263648986816406,-4.888988971710205 -4.263648986816406,-7.803269386291504 C61.69417190551758,8.208247184753418 63.22820281982422,5.434351921081543 65.95782089233398,3.332789421081543 zM49.526607513427734,13.125144004821777 c2.3272128105163574,0.17505979537963867 4.483460903167725,0.9184296131134033 6.159379959106445,2.137082576751709 c1.6759188175201416,1.219498634338379 2.6982176303863525,2.797574043273926 2.94012713432312,4.478824615478516 c-2.328376054763794,-0.1759054958820343 -4.483460903167725,-0.9184296131134033 -6.160542964935303,-2.1379284858703613 C50.78965377807617,16.385315895080566 49.76851272583008,14.80724048614502 49.526607513427734,13.125144004821777 zM77.54736709594727,31.298380851745605 c0,4.132087707519531 -4.435776710510254,21.815664291381836 -6.818814754486084,31.316251754760742 c-0.7908569574356079,3.1527676582336426 -1.363065242767334,5.430236339569092 -1.5642684698104858,6.371500015258789 C68.57114028930664,71.75157451629639 68.01753997802734,71.75157451629639 65.69149017333984,71.75157451629639 c-2.315582752227783,0 -2.797074794769287,0 -3.4797706604003906,-2.8001110553741455 c-0.13491088151931763,-0.5530874729156494 -0.4047326445579529,-1.6127488613128662 -0.7675964832305908,-3.0394439697265625 c-0.4140368700027466,-1.6279715299606323 -0.9653106331825256,-3.798036575317383 -1.5805507898330688,-6.257330894470215 h5.697659015655518 c1.2839794158935547,0 2.3260498046875,-0.7577467560768127 2.3260498046875,-1.6913989782333374 s-1.0420703887939453,-1.6913989782333374 -2.3260498046875,-1.6913989782333374 h-6.5385260581970215 c-0.34425538778305054,-1.3954041004180908 -0.69781494140625,-2.84155011177063 -1.0513744354248047,-4.306301593780518 h7.589900493621826 c1.2839794158935547,0 2.3260498046875,-0.7577467560768127 2.3260498046875,-1.6913989782333374 s-1.0420703887939453,-1.6913989782333374 -2.3260498046875,-1.6913989782333374 h-8.398202896118164 c-0.35937467217445374,-1.522258996963501 -0.7071191072463989,-3.0326783657073975 -1.037418246269226,-4.497429847717285 h9.43562126159668 c1.2839794158935547,0 2.3260498046875,-0.7577467560768127 2.3260498046875,-1.6913989782333374 s-1.0420703887939453,-1.6913989782333374 -2.3260498046875,-1.6913989782333374 h-10.177631378173828 c-0.9153006076812744,-4.29361629486084 -1.5468231439590454,-7.823566436767578 -1.5468231439590454,-9.405024528503418 c0,-4.753676891326904 5.318512916564941,-8.621060371398926 11.855875968933105,-8.621060371398926 S77.54736709594727,26.543856620788574 77.54736709594727,31.298380851745605 zM78.91740798950195,17.603968620300293 c-1.6759188175201416,1.2186529636383057 -3.832167148590088,1.9620227813720703 -6.160542964935303,2.137082576751709 c0.2419091910123825,-1.6812505722045898 1.2642080783843994,-3.2593259811401367 2.94012713432312,-4.478824615478516 c1.6747559309005737,-1.2186529636383057 3.832167148590088,-1.9620227813720703 6.159379959106445,-2.137082576751709 C81.61446762084961,14.80724048614502 80.59332656860352,16.385315895080566 78.91740798950195,17.603968620300293 z" id="svg_1" class="" stroke-opacity="1" stroke="#345A61" fill-opacity="1" fill="#345A61" transform="translate(-39.8936, 1.59574)"/></g></svg>